<?xml version="1.0" encoding="utf-8"?>
<!-- Generator: Adobe Illustrator 19.2.1, SVG Export Plug-In . SVG Version: 6.00 Build 0)  -->
<svg version="1.1" id="layer" xmlns="http://www.w3.org/2000/svg" xmlns:xlink="http://www.w3.org/1999/xlink" x="0px" y="0px"
	 viewBox="0 0 652 652" style="enable-background:new 0 0 652 652;" xml:space="preserve">
<style type="text/css">
	.st0{fill:#FF1100;}
</style>
<path class="st0" d="M20.3,335.5l0,1.8c0,7.2,0,14.3,0,21.5c0,3.6,2.5,6.6,6.1,6.7c4.9,0.2,9.8,0.1,14.8,0.1c3.6,0,6.7-3.2,6.6-7.3
	c-0.1-4.6,0.1-9.2,0.1-13.7c0-6.2,0.1-12.5,0.2-18.7c0-1.1,0.2-1.4,1.3-1.6c2.5-0.7,5-0.8,7.6-0.2c4.6,1,8,4.5,8.5,9.2
	c0.2,2.3,0.2,4.7,0.3,7c0.1,6.1,0.1,12.3,0.2,18.5c0,4.1,3,7,7.1,7c4.4,0,8.8,0,13.2,0c4.1,0,7.1-2.9,7.1-7.1c0-12.6,0-25.3,0-37.9
	v-0.6c-0.1-1.3-0.6-2.5-1.8-3.2c-0.8-0.5-1.7-0.9-2.6-1.1c-3.6-0.9-7.2-1-10.8-0.5c-2.8,0.4-5.5,1.1-8.3,1.7c-3.6,0.8-7.3,1-11,0.7
	c-4.7-0.5-8.9-2.5-12.8-5.2c-1.8-1.3-3.7-2.5-5.6-3.7c-2.3-1.4-4.9-1.9-7.6-2c-2.9-0.2-5.8-0.2-8.6,0.4c-2.3,0.5-3.4,1.8-3.6,4.1
	c0,0.5-0.1,0.9-0.1,1.4C20.3,320.3,20.3,327.9,20.3,335.5z M34,303.3c7.6,0,13.8-6.1,13.8-13.7s-6.1-13.8-13.7-13.8
	c-7.6,0-13.8,6.1-13.8,13.7v0C20.3,297,26.4,303.2,34,303.3z M92.8,296.5c0-7.6-6.1-13.8-13.7-13.8c-7.6,0-13.8,6.1-13.8,13.7
	c0,7.6,6.1,13.8,13.7,13.8C86.6,310.3,92.8,304.2,92.8,296.5z M176.2,365.4h-15.8v-27.3H133v27.3h-15.7v-66.7H133v25.5h27.5v-25.5
	h15.7V365.4z M206.4,324.6c-4.9,0-8.3,2.5-8.8,7.3h-14.2c0.7-9.3,9.7-17.6,24.3-17.6c14.2,0,22.4,5.7,22.1,20.8l-0.2,10.8
	c-0.1,6.5,0.2,15.3,1.1,19.5h-14.9l-0.2-6c-3.7,5.2-9.6,7.2-16.7,7.2c-9.4,0-17.1-5.5-17.1-14.6c0-12.2,13.7-16.2,33-17.6v-1.9
	C214.7,326.7,211.8,324.6,206.4,324.6z M204.4,356.3c6.1,0,10.7-2.6,10.7-11.7v-1.2c-10.6,0.9-17.7,2.3-17.7,7.6
	C197.4,354.2,200.5,356.3,204.4,356.3z M269.5,314.8c12.7,0,16.7,7.4,16.7,20.9v29.7h-15.2v-26c0-7.1-0.3-12.9-7.7-12.9
	c-6.5,0-9.2,4.3-9.2,13.5v25.4h-15.2v-49.5H254v6.5C256.3,318.7,261.7,314.8,269.5,314.8z M344.9,365.4h-15.2v-6.6
	c-3.2,5.4-9.7,7.8-15.2,7.8c-12.7,0-21.8-9.7-21.8-26s9.1-25.9,21.8-25.9c5.4,0,12,2.4,15.2,7.8v-23.9h15.2V365.4z M319.5,354.8
	c6,0,11-4,11-14.2s-5-14.1-11-14.1c-6.1,0-11,4.9-11,14.1C308.5,349.9,313.4,354.8,319.5,354.8z M375.6,325.6
	c-5.2,0-7.9,1.4-7.9,3.7s1.8,3.6,6.1,4.4l9.2,1.6c12,2.2,17.6,5.7,17.6,14.4c0,11.1-10.2,16.8-23.9,16.8c-13.1,0-22.5-5.7-24.3-17.3
	h14.1c1.3,4.8,5.2,6.3,10.4,6.3c5.4,0,9.2-1.5,9.2-4.4c0-2.2-2-3.6-7.7-4.6l-8.8-1.5c-9.6-1.6-16.1-6.5-16.1-15.2
	c0-9.9,10.4-15.3,22.7-15.3c11.3,0,21.6,4.6,23.5,15.8h-14.2C384.3,326.7,380.4,325.6,375.6,325.6L375.6,325.6z M455,335.7v29.7
	h-15.2v-26c0-7.1-0.2-12.9-7.6-12.9c-6.5,0-9.3,4.3-9.3,13.5v25.4h-15.2v-66.7H423v23.8c2.2-3.7,7.7-7.7,15.4-7.7
	C451,314.8,455,322.2,455,335.7z M486.3,324.6c-4.9,0-8.3,2.5-8.8,7.3h-14.2c0.7-9.3,9.7-17.6,24.3-17.6c14.2,0,22.4,5.7,22.1,20.8
	l-0.2,10.8c-0.1,6.5,0.2,15.3,1.1,19.5h-14.9l-0.2-6c-3.7,5.2-9.6,7.2-16.7,7.2c-9.4,0-17.1-5.5-17.1-14.6c0-12.2,13.7-16.2,33-17.6
	v-1.9C494.6,326.7,491.7,324.6,486.3,324.6z M484.3,356.3c6.1,0,10.7-2.6,10.7-11.7v-1.2c-10.6,0.9-17.7,2.3-17.7,7.6
	C477.3,354.2,480.4,356.3,484.3,356.3z M534,334.8l16.7-18.9h18l-17.7,19l19.1,30.6h-17.8l-11.7-19.5L534,353v12.4h-15.2v-66.8H534
	V334.8L534,334.8z M595.4,366.6c-16.1,0-27.2-9.9-27.2-26.2c0-15.8,12.1-26,26.5-26c16.4,0,26.5,12.5,25.5,30.1h-36.7
	c0.5,7,5.9,10.3,11.4,10.3c5.7,0,9.4-2,11.1-5h14C615.6,361.5,605.3,366.6,595.4,366.6L595.4,366.6z M605.1,335.3
	c-0.2-6.2-4.7-9.3-10.4-9.3c-5.3,0-10.2,2.8-11,9.3H605.1z"/>
</svg>
